<?xml version="1.0" standalone="no"?>
<!DOCTYPE svg PUBLIC "-//W3C//DTD SVG 20010904//EN"
 "http://www.w3.org/TR/2001/REC-SVG-20010904/DTD/svg10.dtd">
<svg version="1.0" xmlns="http://www.w3.org/2000/svg"
 width="260.000000pt" height="260.000000pt" viewBox="0 0 260.000000 260.000000"
 preserveAspectRatio="xMidYMid meet">
<metadata>
Created by potrace 1.11, written by Peter Selinger 2001-2013
</metadata>
<g transform="translate(0.000000,260.000000) scale(0.100000,-0.100000)"
fill="#000000" stroke="none">
<path d="M0 1300 l0 -1300 1300 0 1300 0 0 1300 0 1300 -1300 0 -1300 0 0
-1300z m2590 0 l0 -1290 -1290 0 -1290 0 0 1290 0 1290 1290 0 1290 0 0 -1290z"/>
<path d="M1120 2424 c-181 -33 -353 -107 -497 -214 -150 -112 -269 -260 -353
-435 -82 -173 -111 -319 -105 -525 7 -249 78 -449 234 -657 167 -223 446 -393
721 -438 66 -11 305 -14 348 -5 20 5 55 11 76 14 57 9 206 61 275 96 321 161
558 476 626 830 14 74 14 314 -1 390 -19 103 -60 233 -96 305 -163 325 -456
556 -804 631 -102 22 -323 26 -424 8z"/>
</g>
</svg>
